<?xml version="1.0" encoding="utf-8"?>
<svg viewBox="-0.1000034511089325 312.70001220703125 1400.10009765625 354.699951171875" width="1400.10009765625" height="354.699951171875" xmlns="http://www.w3.org/2000/svg"><path d="M1396.5,592.9v-19.5h-9.6V562h-15.4v11h-4.5v-4.6h-6.9v4.6h-2.6v2.6h-2v0.4h-11v-18.3h-2.9v-42h-20.1v42h-38.5v-39.2h-9.5&#10;&#9;&#9;v-76.7h-16v9.2h-24.7v-6.4h-7.9v-27.7h-0.8v1.2c-2.7,2.1-6.2,0.2-8,3.5v4.1c2.1-4,5.3-2.3,8-3.6v22.6h-5.2v6.4h-4v68.7h-14.5v20.7&#10;&#9;&#9;h-2.2v37.2h-3.7v-72.9h-18.6v53h-4.9v-10.9h-24.8v-44.2H1125v-25.9h-28.6v25.9v77.3h-2.9v-12.7h0.4l-1.4-7l-1.3,6.7v-13.1h0.6&#10;&#9;&#9;l-1.4-6.9l-1.2,6.1h-0.3v-5.6h-1v-9.4h0.6l-2.8-13.9l-2.8,13.9h0.6v9.4h-1v5.6h-0.3l-1.2-6.1l-1.4,6.9h0.6v13.3h-0.2l-1.4-6.8&#10;&#9;&#9;l-1.4,7h0.6v5.8l-7-6.4l-3.4,3.1h-5.5v-2.6h0.4l-1.4-7l-1.3,6.7v-13.1h0.6l-1.4-6.9l-1.2,6.1h-0.3v-5.6h-1v-9.4h0.6l-2.8-13.9&#10;&#9;&#9;l-2.8,13.9h0.6v9.4h-1v5.6h-0.3l-1.2-6.1l-1.4,6.9h0.6v13.3h-0.2l-1.4-6.8l-1.4,7h0.6v9h-5.4v-33.5h-8.5v-75.5h-8.6V465h-6.7v2.2&#10;&#9;&#9;h-12.4v-16.9h-0.9v16.9h-6.9v-3.8h-12.4v3.8h-6.7v80.2h-3.7v-17.6h-16.8v-34.6h-19.3V324h-7.5v-11.3h-66.7V324h-7.5v168.8h-24.2&#10;&#9;&#9;v2.3h-13v3.5h-4.8v2.2h-3.9v7.6h1.7v84.4h-4.7V550h-10.7v-87.2h-5v-2.7h-36.2v2.7h-5v105.5h-17.6v-19.5h-8.6l-6.2-48.5v-99&#10;&#9;&#9;l-11.7-8.6l-5.9-79.8l-5.9,79.8l-11.7,8.6v99l-7.6,59.1V450.7h-16.5v-4.8h-12v-14.3h-3v-20.3h-2.2v20.3v14.3v4.8h-6v-4.8v-14.3&#10;&#9;&#9;v-20.3h-2.1v20.3h-3v14.3h-12v4.8H596v90h-12.7v32.1H579v20.2h-2v-23.8h-3.2V464.3H572v-20.5h-14.7v20.5h-1.6v104.8h-8.8v-39h-5.5&#10;&#9;&#9;v-87.2H464v-6.2h-3.3v-1.4h-20v-5.2h-1v5.2h-9.1v1.4h-7.1v106.6h-7.8v-46.2h-25.6v32.5l-3.2-2.6l-0.4-0.3h-0.4h-10.3v-30.9h-34.3&#10;&#9;&#9;v30.9H312V503h-33.8v20.9c-30.7-13-58.6-27.8-83.8-44.5c-26.9-17.8-50.7-37.7-71.6-59.5V419v-2.9h-4.4v2.9H96.9v-2.9h-4.4v3.7&#10;&#9;&#9;c-20.8,21.9-44.7,41.7-71.6,59.5c-6.8,4.5-13.8,8.8-21,13.1v2.9c7.7-4.5,15.1-9.1,22.4-13.9c26.3-17.4,49.7-36.8,70.2-58v21.7&#10;&#9;&#9;c-20.8,19.9-44.6,37.5-71.5,52.7C14.2,501.7,7.2,505.4,0,509v2.7c7.6-3.8,15.1-7.7,22.3-11.7c26.3-14.9,49.7-32.1,70.3-51.5v78.3&#10;&#9;&#9;H46.9v-16.2H9.7v16.2H0v2.5h6.8v9.2H0v2.5h9.7v20.1H3.7v31.9H0v6v10v58.4h1400v-58.4v-10v-6H1396.5z M567.8,445.7h2.2v5.3h-2.2&#10;&#9;&#9;V445.7z M567.8,453.3h2.2v8.6h-2.2V453.3z M562.4,445.7h2.2v5.3h-2.2V445.7z M562.4,453.3h2.2v8.6h-2.2V453.3z M385.5,529.3h0.2&#10;&#9;&#9;l4.4,3.6v5.6h-4.6V529.3z M383.5,529.3v9.2h-7.7v-9.2H383.5z M331,559.5v11.7h-9.2v-30.3h19.7v18.6H331z M312,571.2v-9.5l4.9,4.9&#10;&#9;&#9;l-4.6,4.6H312z M312,558.1v-7l5.5-5.5v17.9L312,558.1z M315.7,571.2l1.8-1.8v1.8H315.7z M335.9,529.3h5.6v9.2h-5.6V529.3z&#10;&#9;&#9; M326,529.3h8v9.2h-8V529.3z M316.1,529.3h8v9.2h-8V529.3z M316.8,542.8l-4.9,4.9v-6.8h3L316.8,542.8z M314.1,529.3v9.2H312v-9.2&#10;&#9;&#9;H314.1z M268,552.1V565h-4.7v-21.4h-23.8v13h-11v-15.7h49.6v11.3H268z M107.6,458L107.6,458l-10.1-10.1l10.1-10.1h0l10.1,10.1&#10;&#9;&#9;L107.6,458z M118.4,450.8v17.9l-9-9L118.4,450.8z M107.6,461.5l10.1,10.1l-10.1,10.1h0l-10.1-10.1L107.6,461.5L107.6,461.5z&#10;&#9;&#9; M118.4,474.5v17.9l-9-9L118.4,474.5z M107.6,485.2l10.1,10.1l-10.1,10.1h0l-10.1-10.1L107.6,485.2L107.6,485.2z M107.6,508.9l5,5&#10;&#9;&#9;h-10v10.3l-5.2-5.2L107.6,508.9L107.6,508.9z M102.7,538.4h-0.8l0.8-0.8V538.4z M102.7,540.9v7.1l-5.2-5.2l1.9-1.9H102.7z&#10;&#9;&#9; M116.2,514l-6.8-6.8l9-8.9V514H116.2z M140.8,529.3h4.8v9.2h-4.8V529.3z M140.8,551.4v-10.5h19.5V564h-11.7v-12.6H140.8z&#10;&#9;&#9; M147.5,538.4v-9.2h8v9.2H147.5z M160.4,538.4h-2.9v-9.2h2.9V538.4z M185.6,558v-17.1h16.7v29.3h-9.7V558H185.6z M187.2,538.4v-9.2&#10;&#9;&#9;h8v9.2H187.2z M228.5,529.3h6.3v9.2h-6.3V529.3z M202.3,538.4h-5.2v-9.2h5.2V538.4z M236.8,538.4v-9.2h8v9.2H236.8z M246.7,538.4&#10;&#9;&#9;v-9.2h8v9.2H246.7z M256.6,538.4v-9.2h8v9.2H256.6z M266.5,538.4v-9.2h8v9.2H266.5z M278.1,538.4h-1.7v-9.2h1.7V538.4z&#10;&#9;&#9; M122.7,423.4c20.5,21.3,43.9,40.6,70.2,58c25.6,16.9,53.9,32,85.2,45.1v0.2h-21.7c-22.3-8.4-43-18.1-62.2-29&#10;&#9;&#9;c-26.9-15.2-50.7-32.8-71.5-52.7V423.4z M193,500c17.5,9.9,36.3,18.9,56.5,26.8h-21v-1.4h-26.2v1.4h-16.7v-29.5h-25.3v29.5h-19.5&#10;&#9;&#9;V514h-18.1v-65.4C143.3,467.9,166.7,485.1,193,500z M118.4,445l-9-9l9-9V445z M98.2,423.4H117l0.7,0.7l-10.1,10.1h0l-10.1-10.1&#10;&#9;&#9;L98.2,423.4z M96.9,427l9,9l-9,9V427z M96.9,450.8l9,9l-9,9V450.8z M96.9,474.5l9,9l-9,9V474.5z M96.9,498.2l9,8.9l-9,9V498.2z&#10;&#9;&#9; M96.9,521.9l4.9,4.9h-4.9V521.9z M96.9,529.3h5.8v4.8l-4.3,4.3h-1.5V529.3z M102.7,551.4v4h-5.8v-9.8L102.7,551.4z M88,529.3h4.5&#10;&#9;&#9;v9.2H88V529.3z M78.1,529.3h8v9.2h-8V529.3z M68.2,529.3h8v9.2h-8V529.3z M58.3,529.3h8v9.2h-8V529.3z M48.4,529.3h8v9.2h-8V529.3z&#10;&#9;&#9; M8.7,538.4v-9.2h1v9.2H8.7z M92.6,540.9v14.5H77v-7h-7.1v19.4H46.9v-26.9H92.6z" style="fill: rgb(204, 204, 204); opacity: 1;" transform="matrix(1, 0, 0, 1, 0, 0)"/></svg>